<?xml version="1.0" standalone="no"?><!DOCTYPE svg PUBLIC "-//W3C//DTD SVG 1.1//EN" "http://www.w3.org/Graphics/SVG/1.1/DTD/svg11.dtd"><svg t="1577450101441" class="icon" viewBox="0 0 1024 1024" version="1.1" xmlns="http://www.w3.org/2000/svg" p-id="1190" xmlns:xlink="http://www.w3.org/1999/xlink" width="200" height="200"><defs><style type="text/css"></style></defs><path d="M319.4368 726.6816a30.72 30.72 0 0 1-29.7984-23.5008l-23.0912-95.1808a30.72 30.72 0 1 1 59.7504-14.4896l23.04 95.1808a30.72 30.72 0 0 1-22.6304 37.12 32.4096 32.4096 0 0 1-7.2704 0.8704z" fill="#d81e06" p-id="1191"></path><path d="M735.0784 839.68H288.9216A92.16 92.16 0 0 1 199.68 769.9968L105.3696 391.424a40.96 40.96 0 0 1 61.952-43.9808l151.9104 99.4816 96.256-118.9376A118.7328 118.7328 0 0 1 398.6432 220.16c14.9504-45.1584 55.04-76.8 107.52-84.4288a40.4992 40.4992 0 0 1 12.1856 0c52.224 7.68 92.16 39.2704 107.52 84.4288a118.8864 118.8864 0 0 1-16.896 107.9808l96.3072 118.9376 151.9104-99.4816a40.96 40.96 0 0 1 61.952 43.9808L824.32 769.9968A92.16 92.16 0 0 1 735.0784 839.68zM177.7152 427.7248l81.408 327.68a30.72 30.72 0 0 0 29.7984 22.8352h446.1568a30.72 30.72 0 0 0 29.7984-23.296l81.408-327.424-123.4432 81.0496a40.96 40.96 0 0 1-54.0672-8.448L550.0416 353.28a40.96 40.96 0 0 1 2.9184-54.4256 57.8048 57.8048 0 0 0 14.08-59.2896c-7.3728-22.2208-27.3408-37.632-55.04-42.496-27.6992 5.12-47.6672 20.48-55.04 42.496A57.8048 57.8048 0 0 0 471.04 298.5984l0.4096 0.4096a40.96 40.96 0 0 1 2.5088 54.272L355.2256 500.1216a40.96 40.96 0 0 1-54.0672 8.448z m538.7776 33.6896zM596.4288 342.016z" fill="#d81e06" p-id="1192"></path></svg>